<?xml version="1.0" encoding="UTF-8"?>
<svg width="86px" height="93px" viewBox="0 0 86 93" version="1.1" xmlns="http://www.w3.org/2000/svg" xmlns:xlink="http://www.w3.org/1999/xlink">
    <title>icon_小程序</title>
    <g id="页面-1" stroke="none" stroke-width="1" fill="none" fill-rule="evenodd">
        <g id="加载页" transform="translate(-144.000000, -152.000000)">
            <g id="icon_小程序" transform="translate(144.000000, 152.000000)">
                <polygon id="路径-2" fill="#FAEEB4" points="7.10455002e-15 23.8370205 41.6807162 0 86 25.6868464 43 49.8290787"></polygon>
                <polygon id="路径-3" fill="#FAE889" points="0 23.8370205 0 66.7991303 43 93 43 49.8290787"></polygon>
                <polygon id="路径-4" fill="#FCD301" points="43 49.8290787 43 93 86 68.216282 86 25.6868464"></polygon>
                <path d="M49.801604,13.1287003 C48.2582012,13.1290208 46.8212659,13.5356699 45.601491,14.2272178 C43.3640937,15.49566 41.868242,17.7379221 41.8677106,20.2947164 L41.8655012,30.9255267 C41.8651032,32.8404044 39.9848017,34.3928105 37.6658105,34.3932917 C35.3459046,34.3937732 33.4662482,32.8421474 33.4666461,30.9272697 C33.4669293,29.5646125 34.4220254,28.3893037 35.8073186,27.8222994 C35.9074768,27.7815076 36.0085492,27.7425277 36.1128217,27.7085302 C36.9845162,27.3617959 37.7328017,26.7106637 38.0109999,25.9549836 C38.4209766,24.8391324 37.6579233,23.9350807 36.3065884,23.9353611 C35.9700122,23.935431 35.6283941,23.9916752 35.2986563,24.0936712 C35.2972843,24.0941245 35.295455,24.0945778 35.294083,24.0950311 C33.3408199,24.650828 31.7093614,25.8697663 30.7303989,27.4613972 C30.0977331,28.4898635 29.7341264,29.6709387 29.7341264,30.9280443 C29.7333055,34.8787537 33.2909241,38.0921287 37.6650419,38.0912211 C39.2079874,38.0909007 40.6444654,37.6842517 41.8642403,36.9927037 C44.102095,35.7238084 45.5974894,33.4815465 45.5980208,30.9247521 L45.6002302,20.2939418 C45.600628,18.3795171 47.4813868,16.827111 49.8008354,16.8266297 C52.1198267,16.8261484 53.9999404,18.377774 53.9995425,20.2921987 C53.9992472,21.7132944 52.9631987,22.9343741 51.4814207,23.4701407 C50.5246737,23.787447 49.7411686,24.4730152 49.4428373,25.2853259 C49.0342335,26.3961938 49.7936292,27.2961691 51.1390191,27.2958899 C51.4440413,27.2958266 51.751818,27.2441195 52.0518272,27.1597971 C52.1007616,27.1461967 52.149239,27.1312372 52.1977162,27.1171838 C54.1400048,26.5577651 55.7609444,25.3429062 56.7357896,23.7585243 C57.3684555,22.730058 57.7320623,21.5485298 57.7320623,20.2914241 C57.7328831,16.3411678 54.1748072,13.1277929 49.801604,13.1287003" id="Fill-10" fill="#FFC802" transform="translate(43.733094, 25.609961) rotate(8.000000) translate(-43.733094, -25.609961) "></path>
            </g>
        </g>
    </g>
</svg>